Coordinates
version=1
nRows=26
nColumns=24
inDegrees=yes

Units are S.I. units (second, meters, Newtons, ...)
Angles are in degrees.

endheader
time	pelvis_tilt	pelvis_list	pelvis_rotation	pelvis_tx	pelvis_ty	pelvis_tz	hip_flexion_r	hip_adduction_r	hip_rotation_r	knee_angle_r	ankle_angle_r	subtalar_angle_r	mtp_angle_r	hip_flexion_l	hip_adduction_l	hip_rotation_l	knee_angle_l	ankle_angle_l	subtalar_angle_l	mtp_angle_l	lumbar_extension	lumbar_bending	lumbar_rotation
      4.75000000	     -1.16648420	      6.61310936	     13.78945922	     -2.78308837	      0.86607829	      0.30404383	     21.38404166	     -8.65887162	    -12.24795348	     -2.40292374	      7.33523236	      5.66096339	      0.00000000	    -12.23136451	     11.21063337	     21.53827757	    -13.82297396	     20.29402447	     -6.93840959	      0.00000000	    -26.06088036	     -1.75472648	    -14.75508116
      4.76000000	     -1.19465341	      6.47866267	     13.88627214	     -2.77029470	      0.86548515	      0.30393467	     21.61386899	     -8.48166574	    -11.62122079	     -3.91780718	      6.59081570	      3.60291138	      0.00000000	    -12.18117019	     11.02896387	     20.79518606	    -15.45702345	     20.12054542	     -5.76669941	      0.00000000	    -25.70941231	     -1.46862273	    -14.93372252
      4.77000000	     -1.20035753	      6.31595795	     13.93557923	     -2.75735591	      0.86519362	      0.30384272	     21.86961876	     -8.26731982	    -10.89929888	     -5.67119904	      5.65891666	      1.33438065	      0.00000000	    -11.97929733	     10.83311207	     19.84847964	    -17.36729379	     19.66536471	     -4.44486852	      0.00000000	    -25.36105544	     -1.13240102	    -14.97373136
      4.78000000	     -1.19271335	      6.12516173	     13.82762897	     -2.74426553	      0.86514731	      0.30391488	     22.18434166	     -7.97416334	    -10.01045550	     -7.60136616	      4.63452442	     -0.90031717	      0.00000000	    -11.58398471	     10.63367676	     18.49213996	    -19.56392873	     18.85989890	     -3.01509617	      0.00000000	    -25.00776489	     -0.76952391	    -14.87245452
      4.79000000	     -1.20225034	      5.91498883	     13.57342175	     -2.73103841	      0.86529701	      0.30409738	     22.54882082	     -7.61237702	     -8.92906461	     -9.60641737	      3.61745706	     -2.99748222	      0.00000000	    -10.96761990	     10.44145982	     16.87871548	    -22.03455712	     17.58077864	     -1.64913960	      0.00000000	    -24.62033838	     -0.38830513	    -14.63376110
      4.80000000	     -1.16660121	      5.68215936	     13.30395605	     -2.71775221	      0.86570489	      0.30433849	     22.84674051	     -7.21084649	     -8.06790160	    -11.61607522	      2.87050444	     -4.66534764	      0.00000000	    -10.16565752	     10.17507259	     15.07437920	    -24.82351500	     15.93894960	     -0.12255200	      0.00000000	    -24.29606561	      0.04841028	    -14.28792041
      4.81000000	     -1.10853399	      5.43228486	     12.97182677	     -2.70441882	      0.86626629	      0.30466065	     23.07010518	     -6.75842588	     -7.28732597	    -13.54470101	      2.44055908	     -5.93634025	      0.00000000	     -9.17757440	      9.84902116	     13.15476484	    -27.87122871	     13.84351325	      1.36463031	      0.00000000	    -24.01024623	      0.51525004	    -13.81159239
      4.82000000	     -1.02617670	      5.16145704	     12.60646052	     -2.69109560	      0.86691029	      0.30501220	     23.17874662	     -6.26092701	     -6.61911747	    -15.32421562	      2.38873631	     -6.82740199	      0.00000000	     -8.02139741	      9.44804326	     11.21828521	    -31.13897219	     11.32269963	      2.74646527	      0.00000000	    -23.77301576	      1.02112208	    -13.24200344
      4.83000000	     -0.94350230	      4.83228443	     12.22320726	     -2.67779834	      0.86753380	      0.30537052	     23.16661789	     -5.68420554	     -6.04557448	    -16.88721843	      2.69497226	     -7.42059559	      0.00000000	     -6.68813579	      8.93629485	      9.33120539	    -34.57929003	      8.43229848	      3.92916099	      0.00000000	    -23.54541213	      1.60317217	    -12.58400878
      4.84000000	     -0.90662435	      4.44500813	     11.84622414	     -2.66463600	      0.86803572	      0.30569764	     23.07560167	     -5.04042156	     -5.53699365	    -18.21213421	      3.26656698	     -7.85794327	      0.00000000	     -5.14654309	      8.33769622	      7.58465159	    -38.15091862	      5.21688662	      4.79757665	      0.00000000	    -23.29470265	      2.24347458	    -11.83743204
      4.85000000	     -0.91612693	      4.01072227	     11.49961223	     -2.65169912	      0.86838316	      0.30598227	     22.90732941	     -4.34543290	     -5.08009287	    -19.29871110	      4.05865332	     -8.21476124	      0.00000000	     -3.41629104	      7.67328254	      6.03003073	    -41.80700220	      1.75583799	      5.29171344	      0.00000000	    -23.04060231	      2.92255884	    -11.05341982
      4.86000000	     -0.94651944	      3.52155515	     11.20248876	     -2.63900684	      0.86860724	      0.30621186	     22.63780495	     -3.59255623	     -4.68323113	    -20.14931369	      4.99914322	     -8.53951792	      0.00000000	     -1.54690927	      6.93853084	      4.68866165	    -45.48924442	     -1.84942093	      5.38476622	      0.00000000	    -22.81509513	      3.64530198	    -10.27180382
      4.87000000	     -1.00943483	      2.95588211	     10.93038671	     -2.62655946	      0.86867023	      0.30642570	     22.30761631	     -2.75256304	     -4.29271444	    -20.79721847	      6.02450933	     -8.84352882	      0.00000000	      0.45809034	      6.12771734	      3.54331804	    -49.15035346	     -5.43961953	      5.10114801	      0.00000000	    -22.60212538	      4.41831128	     -9.45215555
      4.88000000	     -1.04714432	      2.36443461	     10.68532395	     -2.61441977	      0.86871291	      0.30662024	     21.87169599	     -1.87330756	     -3.91691496	    -21.27177737	      7.03963865	     -9.18834403	      0.00000000	      2.50183191	      5.30445961	      2.59752241	    -52.70660287	     -8.95487346	      4.32379437	      0.00000000	    -22.50630777	      5.18860950	     -8.63465974
      4.89000000	     -0.97337053	      1.74897125	     10.50086535	     -2.60249313	      0.86895184	      0.30674852	     21.23014965	     -0.96582687	     -3.67859007	    -21.56916722	      7.97268312	     -9.57120060	      0.00000000	      4.45243924	      4.46460945	      1.87991564	    -56.06924360	    -12.24708581	      3.15579011	      0.00000000	    -22.60499172	      5.97871194	     -7.84203176
      4.90000000	     -1.10688036	      1.15490052	     10.25155065	     -2.59077251	      0.86889931	      0.30700603	     20.76344872	     -0.06965702	     -3.16716542	    -21.76316917	      8.88268055	     -9.92951511	      0.00000000	      6.62935120	      3.72164575	      1.24335393	    -59.21593788	    -15.02551465	      1.73100262	      0.00000000	    -22.50567467	      6.61950904	     -7.06464603
      4.91000000	     -1.03158940	      0.59093133	     10.08923164	     -2.57924297	      0.86933010	      0.30714097	     19.98617739	      0.78227126	     -2.92404098	    -21.79104767	      9.63580175	    -10.26900863	      0.00000000	      8.54724410	      3.02434391	      0.83745108	    -62.04432636	    -17.12855412	      0.22947987	      0.00000000	    -22.72909715	      7.25459253	     -6.34990013
      4.92000000	     -1.03965827	      0.11650058	      9.90824832	     -2.56777213	      0.86982987	      0.30728307	     19.20439225	      1.53986060	     -2.53474903	    -21.67534928	     10.34889152	    -10.58792115	      0.00000000	     10.47536267	      2.48441416	      0.51451912	    -64.51274012	    -18.33040695	     -1.21445187	      0.00000000	    -22.85982013	      7.73699882	     -5.72565337
      4.93000000	     -0.98680329	     -0.27159246	      9.73766981	     -2.55651935	      0.87062697	      0.30737739	     18.30399490	      2.18729443	     -2.26404687	    -21.46367676	     10.95531160	    -10.78273451	      0.00000000	     12.26126312	      2.07231668	      0.28244521	    -66.61164721	    -18.37843235	     -2.35467935	      0.00000000	    -23.14477678	      8.11351402	     -5.16076877
      4.94000000	     -1.01435836	     -0.53543258	      9.60776951	     -2.54525169	      0.87160177	      0.30740803	     17.36104245	      2.68178295	     -1.92862303	    -21.06636245	     11.46962011	    -11.03136720	      0.00000000	     14.02139573	      1.84367872	      0.11629244	    -68.28062594	    -17.42018266	     -3.18632767	      0.00000000	    -23.30300534	      8.32762563	     -4.79189340
      4.95000000	     -0.99469099	     -0.65557073	      9.49032522	     -2.53413387	      0.87291792	      0.30735877	     16.30162874	      2.99560882	     -1.72795590	    -20.57686217	     11.94880386	    -11.08400476	      0.00000000	     15.61361047	      1.79472971	     -0.01805102	    -69.49855435	    -15.48798799	     -3.57977636	      0.00000000	    -23.57305714	      8.38608226	     -4.49865688
      4.96000000	     -1.01412304	     -0.64314923	      9.42265040	     -2.52312172	      0.87444145	      0.30719907	     15.20121095	      3.13337661	     -1.57091873	    -19.97195406	     12.35643202	    -11.07122792	      0.00000000	     17.13501976	      1.93066403	     -0.10584556	    -70.25690040	    -12.86078117	     -3.60523939	      0.00000000	    -23.81338896	      8.30145181	     -4.34470705
      4.97000000	     -1.08203787	     -0.48376474	      9.40350308	     -2.51225226	      0.87610056	      0.30696844	     14.09123193	      3.08519795	     -1.43807443	    -19.29156733	     12.74783188	    -10.99078997	      0.00000000	     18.59977211	      2.25790562	     -0.17005110	    -70.55821009	     -9.85258704	     -3.35002477	      0.00000000	    -24.02264058	      8.05395669	     -4.37479028
      4.98000000	     -1.20027428	     -0.22604680	      9.43929146	     -2.50139129	      0.87785993	      0.30668002	     12.97103213	      2.89858724	     -1.48560105	    -18.50675036	     13.04213066	    -10.90914680	      0.00000000	     20.00382786	      2.71102985	     -0.21333208	    -70.40877565	     -6.73237210	     -2.90785336	      0.00000000	    -24.14690885	      7.67703010	     -4.45439326
      4.99000000	     -1.36285007	      0.12517419	      9.50777918	     -2.49068865	      0.87961790	      0.30632234	     11.88049839	      2.58995662	     -1.55484057	    -17.70648890	     13.33090175	    -10.74070293	      0.00000000	     21.36134076	      3.28832349	     -0.25777493	    -69.85053939	     -3.76649644	     -2.48598085	      0.00000000	    -24.25299763	      7.20833307	     -4.65507347
      5.00000000	     -1.59760405	      0.58531147	      9.60811496	     -2.48012391	      0.88131153	      0.30589966	     10.85681429	      2.14609191	     -1.59922623	    -16.91194114	     13.59263297	    -10.56799478	      0.00000000	     22.68773483	      4.00917336	     -0.32310179	    -68.88319576	     -1.17215709	     -2.28987747	      0.00000000	    -24.30048400	      6.61230896	     -4.98505909
